OpenSim_Sub05_CSBaseline_GRF.mot
version=1
nRows=69
nColumns=19
inDegrees=no
endheader
time	lFx	lFy	lFz	lCOPx	lCOPy	lCOPz	rFx	rFy	rFz	rCOPx	rCOPy	rCOPz	lMx	lMy	lMz	rMx	rMy	rMz
52.78000000	-4.77507512	-1.20635261	-0.02146026	0.00000155	0	-0.00000130	-8.80900304	743.93621816	-73.95962999	0.87739301	0	-0.35524863	0	0.00000383	0	0	-2.41491533	-0.00000000
52.79000000	-4.72411016	-1.28477003	-0.04158686	0.00000146	0	-0.00000106	-7.66399666	743.31627961	-74.23844771	0.87296356	0	-0.35477728	0	0.00000119	0	0	-2.33323262	-0.00000000
52.80000000	-4.62611406	-1.36996187	-0.12289398	0.00000180	0	-0.00000117	-6.75027705	743.05779156	-75.07696737	0.86873979	0	-0.35426142	0	0.00000271	0	0	-2.20038652	0
52.81000000	-4.54051728	-1.41318363	-0.23244124	0.00000240	0	-0.00000152	-5.94922107	743.11053266	-76.04379380	0.86462648	0	-0.35375710	0	0.00000856	0	0	-1.99249706	0
52.82000000	-4.49846477	-1.43165337	-0.30171542	0.00000161	0	-0.00000104	-5.08633349	743.67289474	-76.85574299	0.86051158	0	-0.35332294	0	0.00001620	0	0	-1.74132354	-0.00000000
52.83000000	-4.48404239	-1.45904113	-0.30559849	-0.00000392	0	0.00000243	-4.11234431	745.01788776	-77.25374648	0.85632616	0	-0.35298720	0	0.00001603	0	0	-1.46166100	-0.00000000
52.84000000	-4.46157691	-1.43625853	-0.32586634	-0.00001818	0	0.00001149	-3.05159675	747.20121294	-77.11973790	0.85212467	0	-0.35275790	0	-0.00001329	0	0	-1.14979885	0
52.85000000	-4.43777152	-1.33353489	-0.37668430	-0.00004086	0	0.00002603	-1.97402050	750.31317311	-76.60870496	0.84799939	0	-0.35261309	0	-0.00010189	0	0	-0.83667469	0.00000000
52.86000000	-4.44625249	-1.21099916	-0.48149768	-0.00005615	0	0.00003614	-0.66635266	754.33191256	-76.06071191	0.84378039	0	-0.35253892	0	-0.00026142	0	0	-0.54127911	-0.00000000
52.87000000	-4.52378213	-1.03541324	-0.61067521	-0.00001683	0	0.00001185	0.94697342	759.12114869	-75.65903013	0.83945490	0	-0.35251659	0	-0.00041328	0	0	-0.25822220	0
52.88000000	-4.64255279	-0.85595413	-0.72214665	0.00016141	0	-0.00010077	2.54199234	764.48361862	-75.42863700	0.83517096	0	-0.35250682	0	-0.00027284	0	0	0.01983859	0
52.89000000	-4.79249754	-0.78918705	-0.87019886	0.00055756	0	-0.00035320	3.70361965	769.90011175	-75.40928241	0.83109105	0	-0.35247531	0	0.00073254	0	0	0.26579934	0.00000000
52.90000000	-4.95297624	-0.84848453	-1.08186114	0.00109346	0	-0.00069828	4.34678433	774.66163456	-75.67148360	0.82713235	0	-0.35244529	0	0.00327535	0	0	0.50652224	-0.00000000
52.91000000	-5.09587532	-0.95501020	-1.31243502	0.00123055	0	-0.00079663	4.73306828	778.68088498	-76.33932208	0.82326093	0	-0.35241304	0	0.00724113	0	0	0.77331554	0.00000000
52.92000000	-5.25935086	-1.11264595	-1.54562019	-0.00038216	0	0.00021098	5.13539749	782.29616881	-77.50138513	0.81939102	0	-0.35237207	0	0.00972988	0	0	1.03809392	0
52.93000000	-5.60075579	-1.27075969	-1.76420896	-0.00583509	0	0.00366611	5.75977319	785.75754168	-79.11372886	0.81547399	0	-0.35231778	0	0.00230488	0	0	1.27197175	0
52.94000000	-6.51917061	-1.11528875	-1.93664901	-0.01639964	0	0.01041410	6.70782932	788.99677170	-81.03495099	0.81139846	0	-0.35228343	0	-0.02984425	0	0	1.56349645	0.00000000
52.95000000	-8.64646054	0.01580445	-2.02178466	-0.02803827	0	0.01795385	8.06266531	791.84013716	-82.84649266	0.80715686	0	-0.35232585	0	-0.10002928	0	0	1.90571040	0
52.96000000	-12.36901051	2.90447455	-2.14786222	-0.02357974	0	0.01542936	9.74292308	794.43445263	-84.14060545	0.80285919	0	-0.35249740	0	-0.19280999	0	0	2.26749304	0
52.97000000	-17.04971992	8.74089621	-2.52147685	0.03419060	0	-0.02088259	11.58857978	797.16957489	-84.72956774	0.79852712	0	-0.35284864	0	-0.21048018	0	0	2.66536885	0
52.98000000	-20.71234900	20.49840078	-3.41904769	0.19399591	0	-0.12238325	13.51405827	800.22421077	-84.45309305	0.79406801	0	-0.35339058	0	0.08728259	0	0	3.06235704	0
52.99000000	-20.40757760	44.08224444	-4.78754400	0.46398136	0	-0.29530749	15.76830564	803.17716204	-83.38865816	0.78948631	0	-0.35407658	0	1.06486040	0	0	3.35991092	0
53.00000000	-14.43240467	86.59158471	-5.66802361	0.74641720	0	-0.47916212	18.44389068	805.38858638	-81.90937869	0.78502246	0	-0.35481936	0	2.85957039	0	0	3.51344936	0
53.01000000	-7.20650953	150.50540829	-4.28605752	0.92630540	0	-0.60208614	21.37137264	806.05546328	-80.29389340	0.78071102	0	-0.35557279	0	4.67813591	0	0	3.55858079	-0.00000000
53.02000000	-6.10773391	230.50843814	0.98115505	0.99252727	0	-0.65465891	24.46995063	804.19798366	-78.71580639	0.77643629	0	-0.35633486	0	5.62055164	0	0	3.51432957	0.00000000
53.03000000	-12.54839238	317.06534479	10.22203470	0.99573025	0	-0.66571988	28.10691281	798.48640884	-77.17469936	0.77194973	0	-0.35714354	0	5.39186311	0	0	3.43090383	0.00000000
53.04000000	-22.54303506	399.98966511	22.08717473	0.97972437	0	-0.66188874	32.74228478	787.54425317	-75.36181623	0.76723502	0	-0.35800997	0	4.23869221	0	0	3.33567620	0.00000000
53.05000000	-32.38441956	471.00331260	34.37685153	0.96498480	0	-0.65683897	38.65105070	770.09135741	-72.98257210	0.76239831	0	-0.35890217	0	2.63205403	0	0	3.18751798	0
53.06000000	-39.84310902	525.72778899	45.12521004	0.95577633	0	-0.65459721	45.72532205	744.79870575	-69.75485476	0.75750554	0	-0.35974069	0	0.99292209	0	0	2.95324696	0
53.07000000	-43.80325989	564.82065847	53.74979025	0.94990457	0	-0.65476582	53.15077953	710.01668156	-65.23771688	0.75243958	0	-0.36053596	0	-0.52873878	0	0	2.71483328	0
53.08000000	-44.20278623	594.06544631	60.90590144	0.94441385	0	-0.65596112	59.80480277	664.02809763	-58.99857783	0.74734265	0	-0.36131856	0	-1.90883769	0	0	2.55002571	0.00000000
53.09000000	-41.78052951	621.14662205	67.14984452	0.93823938	0	-0.65721562	64.47548620	605.55169158	-50.77574896	0.74246281	0	-0.36214143	0	-2.98519211	0	0	2.41559581	-0.00000000
53.10000000	-37.73484297	651.07126498	72.56837413	0.93165648	0	-0.65815821	65.96041585	534.72783138	-40.66866939	0.73839104	0	-0.36326223	0	-3.66228093	0	0	2.28953151	0
53.11000000	-33.24946771	684.38255075	77.09494753	0.92486581	0	-0.65875259	63.54665472	453.54698515	-29.61053623	0.73609915	0	-0.36532373	0	-3.95324368	0	0	2.17364784	0
53.12000000	-29.08943951	717.97802069	80.55849560	0.91789700	0	-0.65908738	56.95764261	366.60150508	-19.19709049	0.73737709	0	-0.36924584	0	-3.87458256	0	0	1.98800367	0
53.13000000	-25.48014110	747.28048693	82.71603556	0.91100140	0	-0.65924862	45.84092515	280.98236116	-10.65696595	0.74346401	0	-0.37542117	0	-3.46886463	0	0	1.67370880	0
53.14000000	-22.28391009	768.66598264	83.63671496	0.90431012	0	-0.65929272	30.66853591	204.37489030	-4.48511017	0.75163323	0	-0.38186081	0	-2.90283673	0	0	1.24118983	0
53.15000000	-19.05503906	780.93337060	83.61606916	0.89769044	0	-0.65928520	13.76140507	142.24669702	-0.73026261	0.74967504	0	-0.38111179	0	-2.37335870	0	0	0.79009325	0
53.16000000	-15.42367321	785.20334035	83.04299519	0.89105251	0	-0.65928131	-1.16873325	95.93390830	1.04859384	0.70949595	0	-0.35776378	0	-1.97264856	0	0	0.40570357	0
53.17000000	-11.59307327	783.67898339	82.14527074	0.88460221	0	-0.65936643	-11.46496236	63.06253309	1.45456106	0.59306643	0	-0.29288880	0	-1.68755949	0	0	0.12472198	0.00000000
53.18000000	-8.38363066	778.37186290	81.14129872	0.87865829	0	-0.65961500	-16.29470409	40.19167797	0.95876368	0.39024447	0	-0.18570933	0	-1.50778174	0	0	-0.01378504	0.00000000
53.19000000	-6.39722352	770.77952660	80.23582511	0.87331069	0	-0.66002749	-15.94162232	24.30897813	0.30947000	0.17353902	0	-0.07846933	0	-1.46075568	0	0	-0.04908650	0.00000000
53.20000000	-5.59756739	762.12015704	79.44414138	0.86860988	0	-0.66058729	-11.53469060	12.89815155	-0.06561528	0.03712227	0	-0.01434016	0	-1.51339538	0	0	-0.03599427	0
53.21000000	-5.66012378	753.31135086	78.68342196	0.86439036	0	-0.66122034	-6.00414147	5.07707896	-0.23883269	-0.01581987	0	0.00912601	0	-1.62931514	0	0	-0.01609097	0.00000000
53.22000000	-6.17012905	744.96736458	77.90484113	0.86025370	0	-0.66185468	-1.82937786	0.63862622	-0.24996346	-0.02255163	0	0.01114364	0	-1.79605205	0	0	-0.00348792	0.00000000
53.23000000	-6.41723703	737.34836859	77.10613205	0.85569366	0	-0.66244263	0.24630709	-1.08028685	-0.21533216	-0.01402008	0	0.00658271	0	-1.98710653	0	0	0.00142987	-0.00000000
53.24000000	-5.70774953	730.73032217	76.34694816	0.85048480	0	-0.66298789	0.82291401	-1.29400227	-0.20469319	-0.00536247	0	0.00237138	0	-2.18989554	0	0	0.00207330	-0.00000000
53.25000000	-3.90792980	725.70482480	75.80448451	0.84481196	0	-0.66351238	0.71162086	-1.00192849	-0.15576205	-0.00062845	0	0.00017696	0	-2.41603237	0	0	0.00129542	-0.00000000
53.26000000	-1.46906119	722.81037348	75.51030201	0.83907028	0	-0.66404462	0.43000654	-0.82835218	-0.08701239	0.00090724	0	-0.00048263	0	-2.60764885	0	0	0.00049822	-0.00000000
53.27000000	0.88392101	722.03516051	75.43311687	0.83346176	0	-0.66458043	0.23119115	-0.84629059	-0.09839282	0.00089760	0	-0.00043600	0	-2.72199761	0	0	0.00006028	-0.00000000
53.28000000	2.84177980	723.01487311	75.52425785	0.82792379	0	-0.66508005	0.14729600	-0.89851777	-0.12009472	0.00048482	0	-0.00022444	0	-2.80927053	0	0	-0.00008277	-0.00000000
53.29000000	4.57965358	725.57811214	75.71010563	0.82242457	0	-0.66555814	0.12108393	-0.91164140	-0.15185656	0.00015439	0	-0.00006607	0	-2.88177263	0	0	-0.00008267	-0.00000000
53.30000000	6.29085611	729.51068022	75.98758707	0.81716627	0	-0.66602994	0.13725937	-0.96439410	-0.20969604	-0.00000332	0	0.00000590	0	-2.94197532	0	0	-0.00004486	-0.00000000
53.31000000	7.93139796	734.17107119	76.40951372	0.81213547	0	-0.66647188	0.15296309	-1.00651044	-0.26714275	-0.00004342	0	0.00002219	0	-3.04476728	0	0	-0.00001439	0.00000000
53.32000000	9.51242231	739.03118240	77.02147139	0.80707353	0	-0.66687210	0.13714530	-0.97504668	-0.30495278	-0.00003420	0	0.00001636	0	-3.19995313	0	0	0.00000025	-0.00000000
53.33000000	11.18278220	743.92202391	77.79007433	0.80171940	0	-0.66724348	0.10306187	-0.90277718	-0.32004043	-0.00001621	0	0.00000737	0	-3.38086374	0	0	0.00000404	-0.00000000
53.34000000	13.01814745	749.14154825	78.71524891	0.79627841	0	-0.66760886	0.07788349	-0.81293334	-0.30828487	-0.00000405	0	0.00000163	0	-3.58008530	0	0	0.00000327	-0.00000000
53.35000000	14.90199251	755.27695266	79.73475744	0.79121321	0	-0.66798572	0.06370732	-0.78003909	-0.28599227	0.00000126	0	-0.00000073	0	-3.75137813	0	0	0.00000161	-0.00000000
53.36000000	16.72165246	762.62462434	80.75097414	0.78674190	0	-0.66837197	0.05783157	-0.80060100	-0.26142481	0.00000285	0	-0.00000130	0	-3.87968654	0	0	0.00000030	0.00000000
53.37000000	18.56712032	771.04613522	81.74171584	0.78278062	0	-0.66876567	0.08237530	-0.84217973	-0.24195315	0.00000335	0	-0.00000137	0	-3.97759575	0	0	-0.00000079	-0.00000000
53.38000000	20.43949560	780.35231056	82.87286907	0.77905539	0	-0.66916801	0.13242367	-0.84254539	-0.20237306	0.00000328	0	-0.00000123	0	-4.08895811	0	0	-0.00000201	-0.00000000
53.39000000	22.00913954	790.01401114	84.33125387	0.77546208	0	-0.66958187	0.15417164	-0.79437334	-0.17264410	0.00000059	0	-0.00000014	0	-4.24926258	0	0	-0.00000311	-0.00000000
53.40000000	23.01918482	798.93529445	86.02269810	0.77207198	0	-0.67002916	0.14411000	-0.72596977	-0.19396837	-0.00000904	0	0.00000349	0	-4.45352412	0	0	-0.00000223	-0.00000000
53.41000000	23.62450806	805.87553889	87.66910187	0.76897374	0	-0.67050708	0.13825809	-0.67644643	-0.19120782	-0.00002944	0	0.00001102	0	-4.69952729	0	0	0.00000465	0.00000000
53.42000000	23.94452514	810.20441398	89.03753629	0.76615135	0	-0.67097964	0.13643225	-0.67403505	-0.16059304	-0.00005584	0	0.00002051	0	-4.96349763	0	0	0.00002256	0.00000000
53.43000000	23.95334686	811.90432460	89.95281715	0.76366203	0	-0.67139785	0.14713521	-0.65888810	-0.14699481	-0.00005934	0	0.00002106	0	-5.21714799	0	0	0.00005131	-0.00000000
53.44000000	23.68775562	811.02403963	90.31744331	0.76147643	0	-0.67169687	0.18476580	-0.62344307	-0.17617832	0.00003011	0	-0.00001330	0	-5.41229679	0	0	0.00007143	-0.00000000
53.45000000	23.43399822	807.36649322	90.02242029	0.75947016	0	-0.67182743	0.20393731	-0.54305148	-0.22356699	0.00031705	0	-0.00012054	0	-5.52930888	0	0	0.00002394	-0.00000000
53.46000000	23.57566749	800.76379087	88.89143630	0.75753381	0	-0.67176035	0.21582191	-0.40409568	-0.27113232	0.00085565	0	-0.00031826	0	-5.56657786	0	0	-0.00019760	0.00000000
